<svg width="24" height="24" viewBox="0 0 24 24" fill="none" xmlns="http://www.w3.org/2000/svg">
<path d="M10.975 20.0999L9.65 18.8749C7.58333 16.9582 5.79167 15.1291 4.275 13.3874C2.75833 11.6457 2 9.8249 2 7.9249C2 6.4249 2.50417 5.17074 3.5125 4.1624C4.52083 3.15407 5.76667 2.6499 7.25 2.6499C8.1 2.6499 8.94167 2.85407 9.775 3.2624C10.6083 3.67074 11.35 4.34157 12 5.2749C12.7333 4.34157 13.4917 3.67074 14.275 3.2624C15.0583 2.85407 15.8833 2.6499 16.75 2.6499C18.2333 2.6499 19.4792 3.15407 20.4875 4.1624C21.4958 5.17074 22 6.4249 22 7.9249C22 9.8249 21.2417 11.6457 19.725 13.3874C18.2083 15.1291 16.4167 16.9582 14.35 18.8749L13.025 20.0999C12.7417 20.3666 12.4 20.4999 12 20.4999C11.6 20.4999 11.2583 20.3666 10.975 20.0999ZM11.35 6.9249C10.9 6.10824 10.3083 5.44157 9.575 4.9249C8.84167 4.40824 8.06667 4.1499 7.25 4.1499C6.15 4.1499 5.25 4.50407 4.55 5.2124C3.85 5.92074 3.5 6.8249 3.5 7.9249C3.5 8.89157 3.825 9.90407 4.475 10.9624C5.125 12.0207 5.9 13.0499 6.8 14.0499C7.7 15.0499 8.63333 15.9791 9.6 16.8374C10.5667 17.6957 11.3667 18.4166 12 18.9999C12.6333 18.4332 13.4333 17.7166 14.4 16.8499C15.3667 15.9832 16.3 15.0457 17.2 14.0374C18.1 13.0291 18.875 11.9957 19.525 10.9374C20.175 9.87907 20.5 8.8749 20.5 7.9249C20.5 6.8249 20.1458 5.92074 19.4375 5.2124C18.7292 4.50407 17.8333 4.1499 16.75 4.1499C15.9167 4.1499 15.1375 4.40407 14.4125 4.9124C13.6875 5.42074 13.0833 6.09157 12.6 6.9249C12.5167 7.05824 12.425 7.15407 12.325 7.2124C12.225 7.27074 12.1083 7.2999 11.975 7.2999C11.8417 7.2999 11.7208 7.27074 11.6125 7.2124C11.5042 7.15407 11.4167 7.05824 11.35 6.9249Z" fill="black"/>
</svg>
