<svg width="24" height="24" viewBox="0 0 24 24" fill="none" xmlns="http://www.w3.org/2000/svg">
<path d="M17.4616 13.9165C16.848 13.917 16.2437 14.067 15.7009 14.3535C15.1581 14.64 14.6931 15.0544 14.346 15.5609L9.06348 13.1731C9.43868 12.2661 9.44014 11.2473 9.06754 10.3393L14.3427 7.93927C14.8572 8.68409 15.6212 9.21967 16.4963 9.44885C17.3714 9.67803 18.2996 9.58563 19.1124 9.18842C19.9253 8.79121 20.569 8.11549 20.9269 7.28383C21.2847 6.45217 21.3329 5.51966 21.0628 4.65545C20.7927 3.79124 20.2221 3.05257 19.4546 2.57343C18.687 2.0943 17.7734 1.90642 16.8793 2.04389C15.9853 2.18136 15.1701 2.63507 14.5815 3.32272C13.993 4.01037 13.6702 4.88641 13.6716 5.79194C13.675 6.00627 13.6967 6.21991 13.7365 6.43053L8.12856 8.98165C7.58995 8.47648 6.91568 8.13981 6.18856 8.01301C5.46145 7.8862 4.71318 7.97478 4.03566 8.26787C3.35815 8.56096 2.78091 9.04578 2.37486 9.66278C1.96881 10.2798 1.75163 11.0021 1.75001 11.741C1.74839 12.4798 1.96239 13.2031 2.36573 13.8219C2.76907 14.4406 3.34418 14.928 4.0204 15.2241C4.69662 15.5201 5.4445 15.612 6.17216 15.4884C6.89982 15.3648 7.57557 15.0311 8.11638 14.5283L13.7389 17.0697C13.6999 17.2801 13.6784 17.4934 13.6748 17.7074C13.6747 18.4575 13.8967 19.1907 14.3128 19.8143C14.7289 20.438 15.3205 20.9241 16.0126 21.2112C16.7047 21.4983 17.4663 21.5735 18.2011 21.4272C18.9359 21.2809 19.6109 20.9198 20.1406 20.3894C20.6704 19.8591 21.0311 19.1834 21.1773 18.4478C21.3234 17.7122 21.2483 16.9497 20.9615 16.2568C20.6748 15.564 20.1892 14.9718 19.5662 14.5552C18.9432 14.1386 18.2108 13.9164 17.4616 13.9165ZM17.4616 3.62512C17.8897 3.62496 18.3083 3.7519 18.6643 3.9899C19.0204 4.22789 19.2979 4.56625 19.4619 4.96217C19.6258 5.35809 19.6688 5.79379 19.5854 6.21417C19.5019 6.63455 19.2959 7.02071 18.9932 7.32383C18.6905 7.62695 18.3049 7.8334 17.885 7.91707C17.4651 8.00074 17.0298 7.95788 16.6343 7.7939C16.2387 7.62993 15.9007 7.3522 15.6628 6.99585C15.4249 6.6395 15.298 6.22053 15.298 5.79194C15.2984 5.21754 15.5265 4.66677 15.9321 4.26053C16.3377 3.85428 16.8878 3.62576 17.4616 3.62512ZM5.55913 13.9165C5.13101 13.9167 4.71246 13.7897 4.35641 13.5517C4.00036 13.3137 3.72281 12.9754 3.55886 12.5795C3.39491 12.1835 3.35193 11.7478 3.43536 11.3275C3.51878 10.9071 3.72486 10.5209 4.02753 10.2178C4.33021 9.91469 4.71587 9.70824 5.13576 9.62456C5.55564 9.54089 5.99088 9.58375 6.38643 9.74773C6.78198 9.91171 7.12007 10.1894 7.35794 10.5458C7.59581 10.9021 7.72277 11.3211 7.72277 11.7497C7.72213 12.324 7.49399 12.8747 7.0884 13.2809C6.6828 13.6871 6.13284 13.9157 5.55913 13.9165ZM17.4616 19.8743C17.0335 19.8743 16.615 19.7472 16.2591 19.5091C15.9031 19.271 15.6257 18.9326 15.4619 18.5367C15.2981 18.1407 15.2552 17.705 15.3387 17.2847C15.4222 16.8644 15.6284 16.4783 15.9311 16.1753C16.2338 15.8722 16.6195 15.6659 17.0393 15.5823C17.4592 15.4986 17.8944 15.5416 18.2899 15.7056C18.6854 15.8696 19.0234 16.1473 19.2613 16.5036C19.4991 16.86 19.626 17.2789 19.626 17.7074C19.6256 18.282 19.3974 18.8329 18.9916 19.2391C18.5858 19.6454 18.0355 19.8738 17.4616 19.8743Z" fill="#121212"/>
</svg>
